<svg width="153" height="153" viewBox="0 0 153 153" fill="none" xmlns="http://www.w3.org/2000/svg">
<rect x="51.4286" width="50.1429" height="10.2857" fill="#2F342C"/>
<rect x="51.4286" y="142.714" width="50.1429" height="10.2857" fill="#2F342C"/>
<rect x="101.571" y="10.2858" width="20.5714" height="10.2857" fill="#2F342C"/>
<rect width="20.5714" height="10.2857" transform="matrix(-1 0 0 1 51.4286 10.2858)" fill="#2F342C"/>
<rect width="20.5714" height="10.2857" transform="matrix(1.19249e-08 -1 -1 -1.19249e-08 62.2857 61.5714)" fill="#2F342C"/>
<rect width="20.5714" height="10.2857" transform="matrix(-4.37114e-08 -1 -1 4.37114e-08 102.286 62.5714)" fill="#2F342C"/>
<rect x="101.571" y="132.428" width="20.5714" height="10.2857" fill="#2F342C"/>
<rect x="30.8571" y="132.428" width="20.5714" height="10.2857" fill="#2F342C"/>
<rect x="122.143" y="20.5715" width="10.2857" height="10.2857" fill="#2F342C"/>
<rect width="10.2857" height="10.2857" transform="matrix(-1 0 0 1 30.8571 20.5715)" fill="#2F342C"/>
<rect x="101.587" y="101.286" width="50.1429" height="10.2857" transform="rotate(-180 101.587 101.286)" fill="#2F342C"/>
<rect width="10.2857" height="10.2857" transform="matrix(1 8.74228e-08 8.74228e-08 -1 101.781 111.765)" fill="#2F342C"/>
<rect width="10.2857" height="10.2857" transform="matrix(1 8.74228e-08 8.74228e-08 -1 41 111.765)" fill="#2F342C"/>
<rect x="122.143" y="122.143" width="10.2857" height="10.2857" fill="#2F342C"/>
<rect width="10.2857" height="10.2857" transform="matrix(-1 0 0 1 30.8571 122.143)" fill="#2F342C"/>
<rect x="132.429" y="30.8571" width="10.2857" height="20.5714" fill="#2F342C"/>
<rect width="10.2857" height="20.5714" transform="matrix(-1 0 0 1 20.5714 30.8571)" fill="#2F342C"/>
<rect x="132.429" y="101.571" width="10.2857" height="20.5714" fill="#2F342C"/>
<rect width="10.2857" height="20.5714" transform="matrix(-1 0 0 1 20.5714 101.571)" fill="#2F342C"/>
<rect x="142.714" y="51.4286" width="10.2857" height="50.1429" fill="#2F342C"/>
<rect width="10.2857" height="50.1429" transform="matrix(-1 0 0 1 10.2857 51.4286)" fill="#2F342C"/>
</svg>
