<svg width="100" height="94" viewBox="0 0 100 94" fill="none" xmlns="http://www.w3.org/2000/svg">
<path d="M4 4H100V94H4V4Z" fill="#2F342C"/>
<rect x="1" y="1" width="88.5314" height="82.4082" fill="#EEEEE2" stroke="#2F342C" stroke-width="2"/>
<rect x="63.3125" y="55.7625" width="7.125" height="7.125" fill="#2F342C"/>
<rect width="7.125" height="7.125" transform="matrix(-1 0 0 1 27.6875 55.7625)" fill="#2F342C"/>
<rect x="63.3125" y="48.6374" width="7.125" height="7.125" fill="#2F342C"/>
<rect width="7.125" height="7.125" transform="matrix(-1 0 0 1 27.6875 48.6374)" fill="#2F342C"/>
<rect x="59.75" y="45.0751" width="7.125" height="7.125" fill="#2F342C"/>
<rect width="7.125" height="7.125" transform="matrix(-1 0 0 1 31.25 45.0751)" fill="#2F342C"/>
<rect x="49.0625" y="18" width="7.125" height="7.125" fill="#2F342C"/>
<rect x="41.9375" y="18" width="7.125" height="7.125" fill="#2F342C"/>
<rect x="17" y="52.2" width="7.125" height="7.125" fill="#2F342C"/>
<rect x="66.875" y="52.2" width="7.125" height="7.125" fill="#2F342C"/>
<rect x="34.8125" y="18" width="7.125" height="7.125" fill="#2F342C"/>
<rect x="29.1125" y="20.1375" width="7.125" height="7.125" fill="#2F342C"/>
<rect width="7.125" height="7.125" transform="matrix(-1 0 0 1 61.8875 20.1375)" fill="#2F342C"/>
<rect x="25.55" y="27.2625" width="7.125" height="7.125" fill="#2F342C"/>
<rect width="7.125" height="7.125" transform="matrix(-1 0 0 1 65.45 27.2625)" fill="#2F342C"/>
<rect x="21.9875" y="34.3876" width="7.125" height="7.125" fill="#2F342C"/>
<rect width="7.125" height="7.125" transform="matrix(-1 0 0 1 69.0125 34.3876)" fill="#2F342C"/>
<rect x="21.9875" y="41.5125" width="7.125" height="7.125" fill="#2F342C"/>
<rect width="7.125" height="7.125" transform="matrix(-1 0 0 1 69.0125 41.5125)" fill="#2F342C"/>
<rect x="59.75" y="52.2" width="7.125" height="7.125" fill="#2F342C"/>
<rect width="7.125" height="7.125" transform="matrix(-1 0 0 1 31.25 52.2)" fill="#2F342C"/>
<rect x="59.75" y="59.3251" width="7.125" height="7.125" fill="#2F342C"/>
<rect width="7.125" height="7.125" transform="matrix(-1 0 0 1 31.25 59.3251)" fill="#2F342C"/>
</svg>
