<svg width="100" height="94" viewBox="0 0 100 94" fill="none" xmlns="http://www.w3.org/2000/svg">
<path d="M4 4H100V94H4V4Z" fill="#2F342C"/>
<rect x="1" y="1" width="88.5314" height="82.4082" fill="#EEEEE2" stroke="#2F342C" stroke-width="2"/>
<rect x="41.7273" y="14" width="8.36364" height="8.36364" fill="#2F342C"/>
<rect x="37.5454" y="20.6909" width="8.36364" height="8.36364" fill="#2F342C"/>
<rect x="45.9092" y="20.6909" width="8.36364" height="8.36364" fill="#2F342C"/>
<rect x="45.9092" y="29.0546" width="8.36364" height="8.36364" fill="#2F342C"/>
<rect x="41.7273" y="36.5818" width="8.36364" height="8.36364" fill="#2F342C"/>
<rect x="40.0544" y="33.2364" width="8.36364" height="8.36364" fill="#2F342C"/>
<rect x="40.0544" y="16.509" width="8.36364" height="8.36364" fill="#2F342C"/>
<rect x="43.4001" y="33.2364" width="8.36364" height="8.36364" fill="#2F342C"/>
<rect x="43.4001" y="16.509" width="8.36364" height="8.36364" fill="#2F342C"/>
<rect x="58.4546" y="32.4" width="8.36364" height="8.36364" fill="#2F342C"/>
<rect x="54.2727" y="40.7636" width="8.36364" height="8.36364" fill="#2F342C"/>
<rect x="50.0908" y="49.1274" width="8.36364" height="8.36364" fill="#2F342C"/>
<rect x="41.7273" y="53.3091" width="8.36364" height="8.36364" fill="#2F342C"/>
<rect x="37.5454" y="61.6727" width="8.36364" height="8.36364" fill="#2F342C"/>
<rect x="45.9092" y="61.6727" width="8.36364" height="8.36364" fill="#2F342C"/>
<rect x="33.3638" y="49.1274" width="8.36364" height="8.36364" fill="#2F342C"/>
<rect x="29.1819" y="40.7636" width="8.36364" height="8.36364" fill="#2F342C"/>
<rect x="37.5454" y="29.0546" width="8.36364" height="8.36364" fill="#2F342C"/>
<rect x="25" y="32.4" width="8.36364" height="8.36364" fill="#2F342C"/>
</svg>
